<?xml version="1.0" encoding="UTF-8"?>
<!DOCTYPE svg PUBLIC "-//W3C//DTD SVG 1.1//EN" "http://www.w3.org/Graphics/SVG/1.1/DTD/svg11.dtd">
<!-- Creator: CorelDRAW Home & Student X7 -->
<svg xmlns="http://www.w3.org/2000/svg" xml:space="preserve" width="18in" height="24in" version="1.1" style="shape-rendering:geometricPrecision; text-rendering:geometricPrecision; image-rendering:optimizeQuality; fill-rule:evenodd; clip-rule:evenodd"
viewBox="0 0 18000 24000"
 xmlns:xlink="http://www.w3.org/1999/xlink">
 <defs>
  <style type="text/css">
   <![CDATA[
    .str1 {stroke:#007EFB;stroke-width:6.94488}
    .str0 {stroke:#F3A62F;stroke-width:3}
    .fil1 {fill:#007EFB}
    .fil0 {fill:#F3A62F}
    .fil3 {fill:#2F99EA;fill-rule:nonzero}
    .fil2 {fill:#F1BC27;fill-rule:nonzero}
   ]]>
  </style>
 </defs>
 <g id="Layer_x0020_1">
  <metadata id="CorelCorpID_0Corel-Layer"/>
  <g id="_436688240">
   <polygon class="fil0 str0" points="7583,12481 7417,12190 7251,11900 7583,11900 7915,11900 7749,12190 "/>
   <polygon class="fil1 str1" points="7589,12264 7511,12127 7432,11990 7589,11990 7746,11990 7668,12127 "/>
   <polygon class="fil0 str0" points="7588,11991 7626,12058 7664,12125 7588,12125 7511,12125 7549,12058 "/>
  </g>
  <path class="fil2" d="M7228 11800c0,1 0,2 -1,3 0,1 -1,2 -3,3 -2,0 -4,1 -8,1 -4,0 -8,0 -14,0 -6,0 -10,0 -13,0 -3,0 -5,-1 -7,-1 -2,-1 -3,-2 -4,-3 0,-1 -1,-2 -2,-4l-21 -53c-2,-6 -5,-11 -7,-16 -3,-4 -6,-8 -9,-11 -3,-4 -6,-6 -10,-8 -4,-1 -8,-2 -14,-2l-15 0 0 91c0,1 0,2 -1,3 -1,1 -2,2 -4,2 -2,1 -4,1 -7,2 -3,0 -7,0 -12,0 -4,0 -8,0 -11,0 -3,-1 -6,-1 -8,-2 -2,0 -3,-1 -4,-2 0,-1 -1,-2 -1,-3l0 -216c0,-5 2,-9 4,-11 3,-3 7,-4 11,-4l61 0c6,0 11,0 15,1 4,0 8,0 11,0 10,2 18,4 26,7 8,4 14,8 19,13 6,6 10,12 13,19 2,7 4,16 4,25 0,8 -1,15 -3,22 -2,6 -5,12 -9,17 -4,5 -9,10 -15,14 -5,3 -12,6 -19,9 3,1 7,4 10,6 3,2 6,5 9,9 2,3 5,7 7,12 3,4 5,9 8,15l20 47c1,4 3,8 3,10 1,2 1,4 1,5zm-62 -161c0,-8 -2,-14 -5,-20 -4,-5 -10,-9 -18,-11 -2,-1 -5,-1 -8,-1 -3,-1 -8,-1 -13,-1l-22 0 0 67 25 0c7,0 13,-1 18,-2 5,-2 9,-4 13,-7 3,-3 6,-7 7,-11 2,-4 3,-9 3,-14z"/>
  <path id="1" class="fil2" d="M7325 11780c0,11 -2,19 -6,23 -4,4 -11,5 -21,5 -10,0 -17,-1 -21,-5 -4,-4 -6,-11 -6,-22 0,-12 2,-19 6,-23 4,-4 11,-6 21,-6 10,0 17,2 21,6 4,3 6,11 6,22z"/>
  <path id="2" class="fil2" d="M7431 11800c0,1 -1,2 -1,3 -1,1 -2,2 -4,2 -2,1 -5,1 -8,2 -3,0 -7,0 -11,0 -5,0 -9,0 -12,0 -3,-1 -6,-1 -7,-2 -2,0 -4,-1 -4,-2 -1,-1 -2,-2 -2,-3l0 -224c0,-1 1,-3 2,-4 0,0 2,-1 4,-2 2,-1 4,-1 7,-1 3,-1 7,-1 12,-1 4,0 8,0 11,1 3,0 6,0 8,1 2,1 3,2 4,2 0,1 1,3 1,4l0 224z"/>
  <path id="3" class="fil2" d="M7542 11780c0,11 -2,19 -6,23 -4,4 -11,5 -21,5 -10,0 -17,-1 -21,-5 -4,-4 -6,-11 -6,-22 0,-12 2,-19 6,-23 4,-4 11,-6 21,-6 11,0 18,2 21,6 4,3 6,11 6,22z"/>
  <path id="4" class="fil2" d="M7740 11735c0,13 -2,23 -7,33 -4,9 -11,17 -19,23 -8,7 -17,11 -27,15 -11,3 -22,4 -35,4 -8,0 -15,0 -22,-2 -7,-1 -14,-3 -19,-5 -5,-2 -10,-4 -13,-6 -4,-2 -7,-4 -8,-5 -2,-2 -3,-4 -4,-7 0,-3 -1,-7 -1,-13 0,-4 0,-7 1,-10 0,-2 0,-4 1,-6 0,-1 1,-2 2,-3 1,-1 2,-1 3,-1 2,0 4,1 8,3 3,2 7,4 12,7 4,2 10,4 17,6 7,2 15,3 24,3 6,0 11,0 15,-2 5,-1 9,-3 12,-6 4,-2 6,-5 8,-9 1,-4 2,-8 2,-13 0,-5 -1,-10 -4,-13 -3,-4 -7,-8 -12,-11 -4,-3 -10,-6 -16,-8 -6,-3 -12,-6 -18,-8 -6,-3 -13,-7 -19,-10 -6,-4 -11,-9 -16,-14 -4,-5 -8,-11 -11,-18 -3,-7 -5,-16 -5,-26 0,-11 3,-21 7,-30 4,-8 10,-15 17,-21 7,-6 15,-10 25,-13 10,-3 20,-4 31,-4 5,0 11,1 17,1 5,1 11,2 15,4 5,1 10,3 13,5 4,2 7,3 8,4 1,2 2,3 2,3 1,1 1,2 2,4 0,1 0,3 0,5 0,2 0,5 0,8 0,4 0,7 0,9 0,3 0,5 -1,6 0,2 -1,3 -2,4 0,0 -2,1 -3,1 -1,0 -3,-1 -6,-3 -3,-2 -7,-3 -11,-5 -4,-2 -9,-4 -15,-6 -6,-2 -12,-2 -18,-2 -6,0 -10,0 -14,2 -4,1 -7,3 -10,5 -3,2 -5,5 -6,8 -1,3 -2,7 -2,10 0,5 2,10 5,14 2,4 6,7 11,10 5,3 10,6 17,8 6,3 12,6 18,9 7,3 13,6 19,10 6,3 11,8 16,13 5,5 9,11 12,18 3,7 4,16 4,25z"/>
  <path id="5" class="fil2" d="M7837 11780c0,11 -2,19 -6,23 -4,4 -11,5 -22,5 -10,0 -17,-1 -21,-5 -4,-4 -6,-11 -6,-22 0,-12 2,-19 6,-23 4,-4 11,-6 22,-6 10,0 17,2 21,6 4,3 6,11 6,22z"/>
  <path id="6" class="fil2" d="M8034 11787c0,4 0,7 0,9 -1,3 -1,5 -2,6 0,1 -1,3 -2,3 -1,1 -2,1 -3,1l-119 0c-4,0 -7,-1 -10,-3 -3,-3 -4,-7 -4,-12l0 -207c0,-5 1,-9 4,-11 3,-3 6,-4 10,-4l119 0c1,0 2,1 2,1 1,1 2,2 3,3 0,2 1,4 1,6 0,3 0,6 0,9 0,4 0,7 0,9 0,2 -1,4 -1,6 -1,1 -2,2 -3,3 0,1 -1,1 -2,1l-85 0 0 58 71 0c1,0 2,0 3,1 1,1 2,2 3,3 0,1 1,3 1,6 0,2 0,5 0,8 0,4 0,7 0,9 0,2 -1,4 -1,6 -1,1 -2,2 -3,3 -1,0 -2,1 -3,1l-71 0 0 66 85 0c1,0 2,1 3,1 1,1 2,2 2,4 1,1 1,3 2,5 0,3 0,6 0,9z"/>
  <path id="7" class="fil2" d="M8137 11780c0,11 -2,19 -6,23 -4,4 -11,5 -21,5 -11,0 -18,-1 -22,-5 -4,-4 -6,-11 -6,-22 0,-12 2,-19 6,-23 4,-4 12,-6 22,-6 10,0 17,2 21,6 4,3 6,11 6,22z"/>
  <path class="fil3" d="M6980 11866c0,1 0,1 0,1 0,0 0,0 0,0 -1,1 -1,1 -2,1 -1,0 -2,0 -3,0 -1,0 -1,0 -2,0 -1,0 -1,0 -1,-1 -1,0 -1,0 -1,0 0,0 0,0 0,-1l-4 -10c-1,-1 -1,-2 -2,-3 0,0 -1,-1 -1,-2 -1,0 -2,-1 -2,-1 -1,0 -2,0 -3,0l-3 0 0 16c0,1 0,1 0,1 0,0 0,0 -1,0 0,0 0,1 -1,1 -1,0 -1,0 -2,0 -1,0 -2,0 -2,0 -1,0 -1,-1 -2,-1 0,0 0,0 -1,0 0,0 0,0 0,-1l0 -40c0,-1 1,-1 1,-2 1,0 1,0 2,0l12 0c1,0 2,0 2,0 1,0 2,0 2,0 2,0 4,1 5,1 2,1 3,2 4,3 1,1 2,2 2,3 1,1 1,3 1,5 0,1 0,2 -1,4 0,1 0,2 -1,3 -1,1 -2,2 -3,2 -1,1 -2,2 -4,2 1,0 2,1 2,1 1,1 1,1 2,2 0,1 1,1 1,2 1,1 1,2 2,3l3 9c1,0 1,1 1,1 0,1 0,1 0,1zm-11 -29c0,-2 -1,-3 -1,-4 -1,-1 -2,-2 -4,-2 0,0 -1,0 -1,0 -1,-1 -2,-1 -3,-1l-4 0 0 13 5 0c1,0 2,0 3,-1 1,0 2,0 3,-1 0,0 1,-1 1,-2 0,-1 1,-1 1,-2z"/>
  <path id="1" class="fil3" d="M7014 11850c0,1 0,2 -1,3 0,0 -1,0 -2,0l-19 0c0,2 1,3 1,4 0,1 1,2 1,3 1,0 2,1 3,1 1,1 2,1 4,1 1,0 3,0 4,0 1,-1 2,-1 3,-1 1,0 1,-1 2,-1 0,0 1,0 1,0 0,0 1,0 1,0 0,0 0,0 0,0 0,1 0,1 0,1 0,1 0,1 0,2 0,0 0,0 0,1 0,0 0,0 0,1 0,0 0,0 0,0 0,1 0,1 0,1 -1,0 -1,0 -2,0 0,1 -1,1 -2,1 -1,1 -2,1 -4,1 -1,0 -2,0 -4,0 -3,0 -5,0 -7,-1 -2,0 -4,-1 -5,-3 -2,-1 -3,-3 -3,-5 -1,-2 -1,-5 -1,-7 0,-3 0,-6 1,-8 0,-2 1,-4 3,-5 1,-2 3,-3 5,-4 2,0 4,-1 6,-1 3,0 5,1 7,1 2,1 3,2 4,3 2,2 2,3 3,5 1,2 1,4 1,6l0 1zm-9 -2c0,-2 0,-4 -1,-6 -1,-1 -3,-2 -5,-2 -1,0 -2,0 -3,1 -1,0 -1,1 -2,2 0,0 -1,1 -1,2 0,1 -1,2 -1,3l13 0z"/>
  <path id="2" class="fil3" d="M7039 11825c0,0 0,1 0,1 0,1 0,1 0,1 0,0 -1,0 -1,1 0,0 0,0 0,0 0,0 0,0 -1,0 0,-1 0,-1 0,-1 -1,0 -1,0 -1,0 -1,0 -1,0 -2,0 0,0 -1,0 -1,0 -1,0 -1,1 -1,1 -1,1 -1,1 -1,2 0,0 0,1 0,2l0 3 5 0c1,0 1,0 1,0 0,0 0,0 0,1 0,0 1,0 1,1 0,0 0,1 0,1 0,2 0,3 -1,3 0,1 0,1 -1,1l-5 0 0 24c0,1 0,1 0,1 -1,0 -1,0 -1,0 0,1 -1,1 -2,1 0,0 -1,0 -2,0 0,0 -1,0 -2,0 0,0 -1,0 -1,-1 0,0 -1,0 -1,0 0,0 0,0 0,-1l0 -24 -4 0c0,0 -1,0 -1,-1 0,0 0,-1 0,-3 0,0 0,-1 0,-1 0,-1 0,-1 0,-1 0,-1 0,-1 1,-1 0,0 0,0 0,0l4 0 0 -3c0,-2 0,-3 1,-5 0,-2 1,-3 2,-4 1,-1 2,-2 3,-2 1,-1 3,-1 5,-1 1,0 2,0 2,0 1,0 2,1 2,1 1,0 1,0 1,0 0,0 1,1 1,1 0,0 0,1 0,1 0,0 0,1 0,2z"/>
  <path id="3" class="fil3" d="M7072 11866c0,1 0,1 0,1 0,0 -1,0 -1,0 0,1 -1,1 -1,1 -1,0 -1,0 -2,0 -1,0 -1,0 -2,0 0,0 0,0 -1,-1 0,0 0,0 0,0 0,0 -1,0 -1,-1l0 -3c-1,2 -3,3 -5,4 -1,1 -3,1 -5,1 -2,0 -4,0 -6,-1 -1,0 -2,-1 -3,-2 -1,-2 -2,-3 -2,-5 0,-1 0,-3 0,-5l0 -19c0,0 0,0 0,0 0,-1 0,-1 0,-1 1,0 1,0 2,0 0,0 1,0 2,0 1,0 1,0 2,0 1,0 1,0 1,0 1,0 1,0 1,1 0,0 0,0 0,0l0 17c0,2 0,3 1,4 0,1 0,1 0,2 1,1 1,1 2,1 1,1 2,1 2,1 1,0 3,-1 4,-1 1,-1 2,-2 3,-4l0 -20c0,0 0,0 0,0 1,-1 1,-1 1,-1 0,0 1,0 1,0 1,0 2,0 3,0 0,0 1,0 2,0 0,0 1,0 1,0 0,0 1,0 1,1 0,0 0,0 0,0l0 30z"/>
  <path id="4" class="fil3" d="M7108 11838c0,1 0,2 0,3 0,0 -1,0 -1,0l-4 0c1,1 1,2 1,2 1,1 1,2 1,2 0,2 -1,4 -1,5 -1,1 -2,3 -3,4 -1,1 -2,1 -4,2 -1,0 -3,0 -5,0 -1,0 -2,0 -3,0 -1,0 -1,0 -2,-1 0,1 0,1 -1,1 0,1 0,1 0,2 0,0 0,1 1,1 0,1 1,1 2,1l8 0c2,0 3,1 5,1 1,0 2,1 3,2 1,0 2,1 2,2 1,2 1,3 1,4 0,2 -1,3 -1,4 -1,2 -2,3 -3,4 -2,1 -3,1 -5,2 -2,1 -5,1 -7,1 -3,0 -5,0 -7,-1 -2,0 -3,-1 -4,-1 -2,-1 -2,-2 -3,-3 -1,-1 -1,-2 -1,-3 0,-1 0,-2 0,-2 1,-1 1,-2 1,-2 1,-1 1,-2 2,-2 0,-1 1,-1 2,-2 -1,0 -2,-1 -3,-2 0,-1 -1,-2 -1,-3 0,-1 1,-2 1,-3 1,-2 2,-3 3,-3 -1,-1 -2,-2 -2,-3 -1,-1 -1,-3 -1,-4 0,-2 1,-4 1,-5 1,-2 2,-3 3,-4 1,-1 2,-1 4,-2 1,0 3,-1 5,-1 1,0 2,0 3,1 1,0 1,0 2,0l10 0c0,0 1,0 1,1 0,0 0,1 0,2zm-11 7c0,-1 0,-2 -1,-3 -1,-1 -2,-2 -4,-2 -1,0 -2,0 -2,1 -1,0 -2,0 -2,1 0,0 -1,1 -1,2 0,0 0,1 0,2 0,1 0,2 1,3 1,1 2,2 4,2 1,0 2,-1 2,-1 1,0 1,-1 2,-1 0,0 1,-1 1,-2 0,0 0,-1 0,-2zm2 25c0,-1 0,-2 -1,-3 -1,0 -2,-1 -3,-1l-7 0c0,1 -1,1 -1,1 0,1 -1,1 -1,2 0,0 0,0 0,1 0,0 0,0 0,1 0,1 0,2 1,2 1,1 3,1 5,1 1,0 3,0 3,0 1,-1 2,-1 3,-1 0,-1 1,-1 1,-2 0,0 0,-1 0,-1z"/>
  <path id="5" class="fil3" d="M7142 11850c0,1 -1,2 -1,3 -1,0 -1,0 -2,0l-19 0c0,2 0,3 1,4 0,1 1,2 1,3 1,0 2,1 3,1 1,1 2,1 4,1 1,0 2,0 4,0 1,-1 2,-1 3,-1 0,0 1,-1 2,-1 0,0 1,0 1,0 0,0 0,0 1,0 0,0 0,0 0,0 0,1 0,1 0,1 0,1 0,1 0,2 0,0 0,0 0,1 0,0 0,0 0,1 0,0 0,0 0,0 0,1 0,1 -1,1 0,0 0,0 -1,0 0,1 -1,1 -2,1 -1,1 -3,1 -4,1 -1,0 -3,0 -4,0 -3,0 -5,0 -7,-1 -2,0 -4,-1 -5,-3 -2,-1 -3,-3 -4,-5 0,-2 -1,-5 -1,-7 0,-3 1,-6 2,-8 0,-2 1,-4 3,-5 1,-2 3,-3 5,-4 1,0 4,-1 6,-1 3,0 5,1 7,1 2,1 3,2 4,3 1,2 2,3 3,5 0,2 1,4 1,6l0 1zm-9 -2c0,-2 0,-4 -1,-6 -1,-1 -3,-2 -5,-2 -1,0 -2,0 -3,1 -1,0 -1,1 -2,2 -1,0 -1,1 -1,2 -1,1 -1,2 -1,3l13 0z"/>
  <path id="6" class="fil3" d="M7177 11850c0,1 0,2 -1,3 0,0 -1,0 -2,0l-18 0c0,2 0,3 0,4 1,1 1,2 2,3 0,0 1,1 2,1 1,1 3,1 4,1 2,0 3,0 4,0 1,-1 2,-1 3,-1 1,0 2,-1 2,-1 1,0 1,0 2,0 0,0 0,0 0,0 0,0 0,0 0,0 0,1 1,1 1,1 0,1 0,1 0,2 0,0 0,0 0,1 0,0 0,0 -1,1 0,0 0,0 0,0 0,1 0,1 0,1 0,0 -1,0 -1,0 -1,1 -2,1 -3,1 -1,1 -2,1 -3,1 -2,0 -3,0 -5,0 -2,0 -5,0 -7,-1 -2,0 -4,-1 -5,-3 -1,-1 -2,-3 -3,-5 -1,-2 -1,-5 -1,-7 0,-3 0,-6 1,-8 1,-2 2,-4 3,-5 1,-2 3,-3 5,-4 2,0 4,-1 7,-1 2,0 4,1 6,1 2,1 4,2 5,3 1,2 2,3 2,5 1,2 1,4 1,6l0 1zm-8 -2c0,-2 -1,-4 -2,-6 -1,-1 -2,-2 -5,-2 -1,0 -2,0 -2,1 -1,0 -2,1 -3,2 0,0 0,1 -1,2 0,1 0,2 0,3l13 0z"/>
  <path id="7" class="fil3" d="M7210 11866c0,1 0,1 0,1 -1,0 -1,0 -1,0 -1,0 -1,1 -2,1 0,0 -1,0 -2,0 -1,0 -1,0 -2,0 -1,0 -1,-1 -1,-1 -1,0 -1,0 -1,0 0,0 0,0 0,-1l0 -41c0,0 0,-1 0,-1 0,0 0,0 1,0 0,0 1,0 1,0 1,-1 1,-1 2,-1 1,0 2,0 2,1 1,0 1,0 2,0 0,0 0,0 1,0 0,0 0,1 0,1l0 41z"/>
  <path id="8" class="fil3" d="M7248 11866c0,1 0,1 0,1 0,0 0,0 -1,0 0,1 0,1 -1,1 0,0 -1,0 -2,0 -1,0 -2,0 -2,0 -1,0 -1,0 -1,-1 -1,0 -1,0 -1,0 0,0 0,0 0,-1l0 -17c0,-1 0,-2 -1,-3 0,-1 0,-2 -1,-2 0,-1 -1,-2 -1,-2 -1,0 -2,0 -2,0 -2,0 -3,0 -4,1 -1,1 -2,2 -3,3l0 20c0,1 0,1 -1,1 0,0 0,0 0,0 -1,1 -1,1 -2,1 0,0 -1,0 -2,0 0,0 -1,0 -2,0 0,0 -1,0 -1,-1 0,0 -1,0 -1,0 0,0 0,0 0,-1l0 -30c0,0 0,0 0,0 0,-1 1,-1 1,-1 0,0 0,0 1,0 0,0 1,0 2,0 0,0 1,0 2,0 0,0 0,0 1,0 0,0 0,0 0,1 0,0 0,0 0,0l0 4c2,-2 4,-4 6,-4 1,-1 3,-2 5,-2 2,0 4,1 5,1 2,1 3,2 4,3 1,1 1,3 2,4 0,2 0,4 0,6l0 18z"/>
  <path id="9" class="fil3" d="M7274 11863c0,1 0,2 0,3 0,0 0,1 0,1 0,0 -1,0 -1,0 -1,1 -1,1 -2,1 0,0 -1,0 -1,0 -1,0 -2,0 -2,0 -2,0 -4,0 -5,0 -1,-1 -2,-2 -3,-2 -1,-1 -1,-2 -2,-4 0,-1 0,-3 0,-5l0 -15 -4 0c0,0 -1,0 -1,-1 0,0 0,-1 0,-3 0,0 0,-1 0,-1 0,-1 0,-1 0,-1 0,-1 0,-1 0,-1 1,0 1,0 1,0l4 0 0 -7c0,0 0,0 0,0 0,-1 0,-1 1,-1 0,0 0,0 1,0 0,0 1,0 2,0 1,0 2,0 2,0 1,0 1,0 1,0 1,0 1,0 1,1 0,0 0,0 0,0l0 7 7 0c0,0 0,0 1,0 0,0 0,0 0,1 0,0 0,0 0,1 0,0 0,1 0,1 0,2 0,3 0,3 0,1 -1,1 -1,1l-7 0 0 14c0,2 1,3 1,4 1,1 2,1 3,1 0,0 1,0 1,0 1,0 1,0 1,0 0,0 1,0 1,-1 0,0 0,0 0,0 1,0 1,0 1,0 0,1 0,1 0,1 0,0 0,0 0,1 0,0 0,1 0,1z"/>
  <path id="10" class="fil3" d="M7308 11850c0,1 0,2 -1,3 0,0 -1,0 -2,0l-18 0c0,2 0,3 0,4 1,1 1,2 2,3 0,0 1,1 2,1 1,1 3,1 4,1 2,0 3,0 4,0 1,-1 2,-1 3,-1 1,0 2,-1 2,-1 1,0 1,0 2,0 0,0 0,0 0,0 0,0 0,0 0,0 1,1 1,1 1,1 0,1 0,1 0,2 0,0 0,0 0,1 0,0 0,0 0,1 -1,0 -1,0 -1,0 0,1 0,1 0,1 0,0 -1,0 -1,0 -1,1 -2,1 -3,1 -1,1 -2,1 -3,1 -2,0 -3,0 -5,0 -2,0 -5,0 -7,-1 -2,0 -4,-1 -5,-3 -1,-1 -2,-3 -3,-5 -1,-2 -1,-5 -1,-7 0,-3 0,-6 1,-8 1,-2 2,-4 3,-5 1,-2 3,-3 5,-4 2,0 4,-1 7,-1 2,0 4,1 6,1 2,1 4,2 5,3 1,2 2,3 2,5 1,2 1,4 1,6l0 1zm-8 -2c0,-2 -1,-4 -2,-6 -1,-1 -2,-2 -5,-2 -1,0 -2,0 -2,1 -1,0 -2,1 -2,2 -1,0 -1,1 -2,2 0,1 0,2 0,3l13 0z"/>
  <path id="11" class="fil3" d="M7343 11838c0,1 0,2 0,3 -1,0 -1,0 -1,0l-4 0c1,1 1,2 1,2 0,1 0,2 0,2 0,2 0,4 0,5 -1,1 -2,3 -3,4 -1,1 -2,1 -4,2 -2,0 -3,0 -5,0 -1,0 -2,0 -3,0 -1,0 -2,0 -2,-1 0,1 -1,1 -1,1 0,1 0,1 0,2 0,0 0,1 1,1 0,1 1,1 2,1l8 0c1,0 3,1 4,1 2,0 3,1 4,2 1,0 1,1 2,2 0,2 1,3 1,4 0,2 -1,3 -1,4 -1,2 -2,3 -3,4 -2,1 -3,1 -5,2 -2,1 -5,1 -8,1 -2,0 -4,0 -6,-1 -2,0 -4,-1 -5,-1 -1,-1 -2,-2 -2,-3 -1,-1 -1,-2 -1,-3 0,-1 0,-2 0,-2 0,-1 1,-2 1,-2 0,-1 1,-2 1,-2 1,-1 2,-1 2,-2 -1,0 -1,-1 -2,-2 -1,-1 -1,-2 -1,-3 0,-1 1,-2 1,-3 1,-2 2,-3 3,-3 -1,-1 -2,-2 -2,-3 -1,-1 -1,-3 -1,-4 0,-2 0,-4 1,-5 0,-2 1,-3 2,-4 2,-1 3,-1 4,-2 2,0 4,-1 6,-1 1,0 2,0 2,1 1,0 2,0 3,0l10 0c0,0 0,0 1,1 0,0 0,1 0,2zm-11 7c0,-1 -1,-2 -2,-3 0,-1 -2,-2 -3,-2 -1,0 -2,0 -3,1 0,0 -1,0 -1,1 -1,0 -1,1 -1,2 0,0 -1,1 -1,2 0,1 1,2 2,3 1,1 2,2 4,2 1,0 1,-1 2,-1 1,0 1,-1 2,-1 0,0 0,-1 1,-2 0,0 0,-1 0,-2zm2 25c0,-1 -1,-2 -1,-3 -1,0 -2,-1 -4,-1l-6 0c-1,1 -1,1 -1,1 -1,1 -1,1 -1,2 0,0 -1,0 -1,1 0,0 0,0 0,1 0,1 1,2 2,2 1,1 3,1 5,1 1,0 2,0 3,0 1,-1 2,-1 2,-1 1,-1 1,-1 2,-2 0,0 0,-1 0,-1z"/>
  <path id="12" class="fil3" d="M7368 11839c0,1 0,1 0,2 0,0 0,1 0,1 0,0 0,1 0,1 0,0 0,0 -1,0 0,0 0,0 0,0 -1,0 -1,0 -1,0 0,-1 -1,-1 -1,-1 0,0 -1,0 -1,0 -1,0 -1,0 -2,0 0,1 -1,1 -1,1 -1,1 -1,1 -2,2 0,1 -1,2 -2,3l0 18c0,1 0,1 0,1 0,0 0,0 -1,0 0,1 0,1 -1,1 0,0 -1,0 -2,0 -1,0 -1,0 -2,0 -1,0 -1,0 -1,-1 -1,0 -1,0 -1,0 0,0 0,0 0,-1l0 -30c0,0 0,0 0,0 0,-1 0,-1 1,-1 0,0 0,0 1,0 0,0 1,0 1,0 1,0 2,0 2,0 1,0 1,0 1,0 1,0 1,0 1,1 0,0 0,0 0,0l0 4c1,-1 2,-2 2,-3 1,-1 2,-1 2,-2 1,0 2,0 2,-1 1,0 2,0 2,0 1,0 1,0 1,0 1,0 1,0 1,0 1,1 1,1 1,1 1,0 1,0 1,0 0,0 0,0 0,0 0,1 0,1 0,1 0,0 0,1 0,1 0,0 0,1 0,2z"/>
  <path id="13" class="fil3" d="M7398 11866c0,1 0,1 0,1 0,0 -1,1 -1,1 -1,0 -1,0 -2,0 -1,0 -2,0 -2,0 -1,0 -1,-1 -1,-1 -1,0 -1,0 -1,-1l0 -2c-1,1 -2,2 -4,3 -2,1 -4,1 -5,1 -2,0 -4,0 -5,0 -1,-1 -3,-1 -4,-2 -1,-1 -1,-2 -2,-3 0,-1 -1,-3 -1,-5 0,-1 1,-3 1,-4 1,-1 2,-2 4,-3 1,-1 3,-2 5,-2 2,-1 4,-1 7,-1l3 0 0 -2c0,-1 0,-1 0,-2 -1,-1 -1,-1 -1,-2 -1,0 -1,-1 -2,-1 -1,0 -2,0 -3,0 -1,0 -3,0 -4,0 -1,0 -2,1 -3,1 -1,1 -1,1 -2,1 -1,1 -1,1 -1,1 -1,0 -1,0 -1,-1 0,0 0,0 -1,0 0,0 0,-1 0,-1 0,-1 0,-1 0,-2 0,0 0,-1 0,-1 0,-1 1,-1 1,-1 0,-1 1,-1 2,-2 0,0 1,0 2,-1 1,0 3,0 4,0 1,-1 2,-1 4,-1 2,0 4,0 6,1 2,0 3,1 4,2 1,1 2,2 3,4 0,1 0,3 0,5l0 20zm-8 -12l-3 0c-2,0 -3,0 -4,0 -1,0 -2,0 -2,1 -1,0 -1,1 -2,1 0,1 0,1 0,2 0,1 0,2 1,3 1,1 2,1 3,1 2,0 3,0 4,-1 1,0 2,-1 3,-2l0 -5z"/>
  <path id="14" class="fil3" d="M7436 11835c1,0 2,0 2,1 1,0 1,1 1,1l0 29c0,1 0,1 0,1 0,0 -1,0 -1,0 0,1 -1,1 -1,1 -1,0 -2,0 -2,0 -1,0 -2,0 -2,0 -1,0 -1,0 -2,-1 0,0 0,0 0,0 -1,0 -1,0 -1,-1l0 -24 -13 0 0 14c0,2 0,3 0,4 1,1 2,1 3,1 1,0 1,0 1,0 1,0 1,0 1,0 1,0 1,0 1,-1 0,0 0,0 1,0 0,0 0,0 0,0 0,1 0,1 0,1 0,0 0,0 1,1 0,0 0,1 0,1 0,1 0,2 -1,3 0,0 0,1 0,1 0,0 -1,0 -1,0 0,1 -1,1 -1,1 -1,0 -2,0 -2,0 -1,0 -1,0 -2,0 -2,0 -3,0 -5,0 -1,-1 -2,-2 -3,-2 -1,-1 -1,-2 -2,-4 0,-1 0,-3 0,-5l0 -15 -4 0c0,0 -1,0 -1,-1 0,0 0,-1 0,-3 0,0 0,-1 0,-1 0,-1 0,-1 0,-1 0,-1 0,-1 1,-1 0,0 0,0 0,0l4 0 0 -7c0,0 0,0 0,0 0,-1 0,-1 1,-1 0,0 1,0 1,0 1,0 1,0 2,0 1,0 2,0 2,0 1,0 1,0 2,0 0,0 0,0 0,1 0,0 1,0 1,0l0 7 19 0zm4 -9c0,2 -1,3 -1,3 -1,1 -2,1 -4,1 -2,0 -4,0 -4,0 -1,-1 -1,-2 -1,-4 0,-2 0,-3 1,-4 0,0 2,-1 4,-1 2,0 3,1 4,1 0,1 1,2 1,4z"/>
  <path id="15" class="fil3" d="M7479 11851c0,3 -1,5 -1,7 -1,2 -2,4 -3,5 -2,2 -4,3 -6,4 -2,1 -4,1 -7,1 -3,0 -5,0 -7,-1 -2,-1 -4,-2 -5,-3 -2,-1 -3,-3 -3,-5 -1,-2 -1,-5 -1,-7 0,-3 0,-5 1,-8 1,-2 2,-3 3,-5 1,-2 3,-3 5,-4 2,0 5,-1 8,-1 2,0 5,1 7,1 2,1 3,2 5,4 1,1 2,3 3,5 0,2 1,4 1,7zm-9 0c0,-1 0,-3 -1,-4 0,-1 0,-2 -1,-3 0,-1 -1,-2 -2,-2 -1,-1 -2,-1 -4,-1 -1,0 -2,0 -3,1 -1,0 -2,1 -2,2 -1,1 -2,2 -2,3 0,1 0,3 0,4 0,2 0,3 0,4 0,2 1,3 1,4 1,1 2,1 3,2 1,0 2,0 3,0 1,0 3,0 4,0 1,-1 1,-1 2,-2 1,-1 1,-2 1,-3 1,-2 1,-3 1,-5z"/>
  <path id="16" class="fil3" d="M7515 11866c0,1 0,1 0,1 0,0 -1,0 -1,0 0,1 -1,1 -1,1 -1,0 -2,0 -2,0 -1,0 -2,0 -3,0 0,0 -1,0 -1,-1 0,0 0,0 -1,0 0,0 0,0 0,-1l0 -17c0,-1 0,-2 0,-3 0,-1 -1,-2 -1,-2 0,-1 -1,-2 -2,-2 0,0 -1,0 -2,0 -1,0 -2,0 -3,1 -1,1 -3,2 -4,3l0 20c0,1 0,1 0,1 0,0 0,0 -1,0 0,1 0,1 -1,1 -1,0 -1,0 -2,0 -1,0 -2,0 -2,0 -1,0 -1,0 -1,-1 -1,0 -1,0 -1,0 0,0 0,0 0,-1l0 -30c0,0 0,0 0,0 0,-1 0,-1 0,-1 1,0 1,0 2,0 0,0 1,0 1,0 1,0 2,0 2,0 1,0 1,0 1,0 1,0 1,0 1,1 0,0 0,0 0,0l0 4c2,-2 3,-4 5,-4 2,-1 4,-2 6,-2 2,0 4,1 5,1 1,1 3,2 3,3 1,1 2,3 2,4 1,2 1,4 1,6l0 18z"/>
  <path id="17" class="fil3" d="M7534 11861c0,1 0,2 -1,3 0,1 0,1 0,2 0,1 0,1 -1,2 0,0 -1,1 -1,2l-5 6c0,0 0,1 0,1 0,0 -1,0 -1,0 0,0 0,0 -1,0 0,0 -1,0 -1,0 -1,0 -2,0 -2,0 0,0 -1,0 -1,0 0,0 0,0 0,0 0,0 0,-1 0,-1l4 -9 0 -6c0,0 0,-1 0,-2 1,0 1,0 1,-1 1,0 1,0 2,0 0,0 1,0 2,0 1,0 2,0 2,0 1,0 1,0 2,0 0,1 0,1 0,1 1,1 1,2 1,2z"/>
  <path id="18" class="fil3" d="M7585 11854c0,3 -1,5 -2,6 -1,2 -2,4 -3,5 -2,1 -4,2 -6,2 -2,1 -4,1 -6,1 -2,0 -3,0 -4,0 -2,0 -3,-1 -4,-1 -1,0 -2,-1 -2,-1 -1,0 -1,-1 -2,-1 0,0 0,-1 0,-1 -1,-1 -1,-2 -1,-3 0,-1 0,-1 0,-2 0,0 1,0 1,-1 0,0 0,0 0,0 0,0 0,-1 1,-1 0,0 0,1 1,1 1,0 1,1 2,1 1,1 2,1 4,2 1,0 2,0 4,0 1,0 2,0 3,0 1,-1 2,-1 2,-1 1,-1 1,-1 2,-2 0,-1 0,-2 0,-2 0,-1 0,-2 -1,-3 0,-1 -1,-1 -2,-2 -1,0 -2,-1 -3,-1 -1,-1 -2,-1 -3,-2 -2,-1 -3,-1 -4,-2 -1,-1 -2,-1 -3,-2 -1,-1 -1,-2 -2,-4 -1,-1 -1,-3 -1,-4 0,-3 1,-4 1,-6 1,-2 2,-3 4,-4 1,-1 2,-2 4,-2 2,-1 4,-1 6,-1 1,0 2,0 3,0 1,0 2,0 3,1 1,0 2,0 3,1 0,0 1,0 1,1 0,0 0,0 1,0 0,0 0,0 0,1 0,0 0,0 0,1 0,0 0,1 0,1 0,1 0,1 0,2 0,0 0,1 0,1 0,0 -1,0 -1,1 0,0 0,0 0,0 -1,0 -1,0 -1,-1 -1,0 -2,0 -3,-1 0,0 -1,0 -2,-1 -1,0 -3,0 -4,0 -1,0 -2,0 -2,0 -1,0 -2,1 -2,1 -1,1 -1,1 -1,2 -1,0 -1,1 -1,2 0,1 1,1 1,2 1,1 1,1 2,2 1,1 2,1 3,2 2,0 3,1 4,1 1,1 2,1 3,2 2,1 3,1 4,2 0,1 1,2 2,4 0,1 1,3 1,4z"/>
  <path id="19" class="fil3" d="M7609 11863c0,1 0,2 0,3 0,0 0,1 -1,1 0,0 0,0 -1,0 0,1 0,1 -1,1 0,0 -1,0 -2,0 0,0 -1,0 -2,0 -1,0 -3,0 -4,0 -1,-1 -2,-2 -3,-2 -1,-1 -2,-2 -2,-4 0,-1 -1,-3 -1,-5l0 -15 -3 0c-1,0 -1,0 -1,-1 -1,0 -1,-1 -1,-3 0,0 0,-1 0,-1 0,-1 1,-1 1,-1 0,-1 0,-1 0,-1 0,0 0,0 1,0l3 0 0 -7c0,0 0,0 1,0 0,-1 0,-1 0,-1 1,0 1,0 2,0 0,0 1,0 2,0 1,0 1,0 2,0 0,0 1,0 1,0 0,0 1,0 1,1 0,0 0,0 0,0l0 7 7 0c0,0 0,0 0,0 0,0 1,0 1,1 0,0 0,0 0,1 0,0 0,1 0,1 0,2 0,3 0,3 0,1 -1,1 -1,1l-7 0 0 14c0,2 0,3 1,4 0,1 1,1 3,1 0,0 1,0 1,0 0,0 1,0 1,0 0,0 0,0 1,-1 0,0 0,0 0,0 0,0 0,0 1,0 0,1 0,1 0,1 0,0 0,0 0,1 0,0 0,1 0,1z"/>
  <path id="20" class="fil3" d="M7641 11866c0,1 0,1 -1,1 0,0 0,1 -1,1 0,0 -1,0 -2,0 -1,0 -2,0 -2,0 -1,0 -1,-1 -1,-1 0,0 0,0 0,-1l0 -2c-2,1 -3,2 -5,3 -1,1 -3,1 -5,1 -2,0 -3,0 -5,0 -1,-1 -2,-1 -3,-2 -1,-1 -2,-2 -2,-3 -1,-1 -1,-3 -1,-5 0,-1 0,-3 1,-4 0,-1 2,-2 3,-3 1,-1 3,-2 5,-2 2,-1 5,-1 7,-1l3 0 0 -2c0,-1 0,-1 0,-2 0,-1 -1,-1 -1,-2 0,0 -1,-1 -2,-1 -1,0 -1,0 -3,0 -1,0 -2,0 -3,0 -2,0 -3,1 -3,1 -1,1 -2,1 -3,1 0,1 -1,1 -1,1 0,0 0,0 -1,-1 0,0 0,0 0,0 0,0 0,-1 0,-1 -1,-1 -1,-1 -1,-2 0,0 0,-1 1,-1 0,-1 0,-1 0,-1 1,-1 1,-1 2,-2 1,0 2,0 3,-1 1,0 2,0 3,0 2,-1 3,-1 4,-1 3,0 5,0 6,1 2,0 4,1 5,2 1,1 2,2 2,4 1,1 1,3 1,5l0 20zm-9 -12l-3 0c-1,0 -3,0 -4,0 -1,0 -1,0 -2,1 -1,0 -1,1 -1,1 -1,1 -1,1 -1,2 0,1 1,2 1,3 1,1 2,1 4,1 1,0 2,0 3,-1 1,0 2,-1 3,-2l0 -5z"/>
  <path id="21" class="fil3" d="M7680 11851c0,3 0,5 -1,7 0,2 -1,4 -2,6 -1,1 -3,2 -4,3 -2,1 -4,1 -6,1 -1,0 -2,0 -3,0 -1,0 -1,0 -2,-1 -1,0 -2,-1 -3,-2 -1,0 -1,-1 -2,-2l0 3c0,1 0,1 0,1 0,0 -1,0 -1,0 0,1 -1,1 -1,1 -1,0 -1,0 -2,0 -1,0 -1,0 -2,0 0,0 0,0 -1,-1 0,0 0,0 0,0 0,0 -1,0 -1,-1l0 -44c0,0 1,-1 1,-1 0,0 0,0 0,0 1,0 1,-1 2,-1 0,0 1,0 2,0 1,0 1,0 2,0 0,0 1,1 1,1 1,0 1,0 1,0 0,0 0,1 0,1l0 17c1,-1 2,-2 2,-2 1,-1 2,-1 3,-2 1,0 1,0 2,-1 1,0 2,0 3,0 2,0 4,1 6,2 1,0 2,2 3,3 1,2 2,3 3,5 0,2 0,5 0,7zm-9 0c0,-1 0,-2 0,-3 0,-1 0,-3 -1,-3 0,-1 -1,-2 -2,-3 -1,0 -2,-1 -3,-1 0,0 -1,1 -1,1 -1,0 -2,0 -2,1 -1,0 -1,0 -2,1 -1,1 -1,1 -2,2l0 10c1,2 3,3 4,4 1,1 2,1 3,1 1,0 2,0 3,-1 1,0 1,-1 2,-2 0,-1 1,-2 1,-3 0,-1 0,-2 0,-4z"/>
  <path id="22" class="fil3" d="M7696 11866c0,1 0,1 0,1 0,0 -1,0 -1,0 0,1 -1,1 -1,1 -1,0 -2,0 -2,0 -1,0 -2,0 -2,0 -1,0 -1,0 -2,-1 0,0 0,0 0,0 -1,0 -1,0 -1,-1l0 -30c0,0 0,0 1,0 0,-1 0,-1 0,-1 1,0 1,0 2,0 0,0 1,0 2,0 0,0 1,0 2,0 0,0 1,0 1,0 0,0 1,0 1,1 0,0 0,0 0,0l0 30zm1 -40c0,2 -1,3 -1,3 -1,1 -2,1 -4,1 -2,0 -4,0 -4,-1 -1,0 -1,-1 -1,-3 0,-2 0,-3 1,-4 0,0 2,-1 4,-1 2,0 3,1 4,1 0,1 1,2 1,4z"/>
  <path id="23" class="fil3" d="M7713 11866c0,1 0,1 0,1 0,0 0,0 -1,0 0,1 0,1 -1,1 0,0 -1,0 -2,0 -1,0 -2,0 -2,0 -1,0 -1,0 -1,-1 -1,0 -1,0 -1,0 0,0 0,0 0,-1l0 -44c0,0 0,-1 0,-1 0,0 0,0 1,0 0,0 0,-1 1,-1 0,0 1,0 2,0 1,0 2,0 2,0 1,0 1,1 1,1 1,0 1,0 1,0 0,0 0,1 0,1l0 44z"/>
  <path id="24" class="fil3" d="M7731 11866c0,1 0,1 -1,1 0,0 0,0 0,0 -1,1 -1,1 -2,1 0,0 -1,0 -2,0 -1,0 -1,0 -2,0 0,0 -1,0 -1,-1 0,0 -1,0 -1,0 0,0 0,0 0,-1l0 -30c0,0 0,0 0,0 0,-1 1,-1 1,-1 0,0 1,0 1,0 1,0 1,0 2,0 1,0 2,0 2,0 1,0 1,0 2,0 0,0 0,0 0,1 1,0 1,0 1,0l0 30zm0 -40c0,2 0,3 -1,3 0,1 -2,1 -4,1 -2,0 -3,0 -4,-1 0,0 -1,-1 -1,-3 0,-2 1,-3 1,-4 1,0 2,-1 4,-1 2,0 4,1 4,1 1,1 1,2 1,4z"/>
  <path id="25" class="fil3" d="M7757 11863c0,1 0,2 0,3 0,0 0,1 0,1 0,0 -1,0 -1,0 -1,1 -1,1 -2,1 0,0 -1,0 -1,0 -1,0 -2,0 -2,0 -2,0 -3,0 -5,0 -1,-1 -2,-2 -3,-2 -1,-1 -1,-2 -2,-4 0,-1 0,-3 0,-5l0 -15 -4 0c0,0 -1,0 -1,-1 0,0 0,-1 0,-3 0,0 0,-1 0,-1 0,-1 0,-1 0,-1 0,-1 0,-1 0,-1 1,0 1,0 1,0l4 0 0 -7c0,0 0,0 0,0 0,-1 0,-1 1,-1 0,0 0,0 1,0 1,0 1,0 2,0 1,0 2,0 2,0 1,0 1,0 2,0 0,0 0,0 0,1 0,0 0,0 0,0l0 7 7 0c0,0 1,0 1,0 0,0 0,0 0,1 0,0 0,0 0,1 0,0 0,1 0,1 0,2 0,3 0,3 0,1 0,1 -1,1l-7 0 0 14c0,2 1,3 1,4 1,1 2,1 3,1 0,0 1,0 1,0 1,0 1,0 1,0 1,0 1,0 1,-1 0,0 0,0 0,0 1,0 1,0 1,0 0,1 0,1 0,1 0,0 0,0 0,1 0,0 0,1 0,1z"/>
  <path id="26" class="fil3" d="M7781 11868l-3 10c0,1 -1,1 -2,1 -1,1 -2,1 -4,1 -1,0 -2,0 -2,0 -1,0 -1,0 -1,-1 -1,0 -1,0 -1,0 0,-1 0,-1 0,-1l4 -10c0,-1 0,-1 0,-1 -1,0 -1,-1 -1,-1l-10 -28c-1,-1 -1,-1 -1,-2 0,0 0,0 1,-1 0,0 0,0 1,0 1,0 1,0 3,0 0,0 1,0 2,0 0,0 1,0 1,0 1,0 1,0 1,1 0,0 0,0 0,1l8 20 0 0 6 -21c0,0 1,0 1,-1 0,0 0,0 1,0 0,0 1,0 3,0 1,0 1,0 2,0 1,0 1,0 1,0 1,1 1,1 1,1 0,1 0,1 0,2l-11 30z"/>
  <path id="27" class="fil3" d="M7803 11861c0,1 0,2 0,3 0,1 0,1 -1,2 0,1 0,1 0,2 -1,0 -1,1 -2,2l-4 6c0,0 -1,1 -1,1 0,0 0,0 0,0 -1,0 -1,0 -1,0 -1,0 -1,0 -2,0 -1,0 -1,0 -2,0 0,0 0,0 0,0 -1,0 -1,0 -1,0 0,0 0,-1 0,-1l5 -9 0 -6c0,0 0,-1 0,-2 0,0 0,0 1,-1 0,0 1,0 1,0 1,0 2,0 2,0 1,0 2,0 2,0 1,0 2,0 2,0 0,1 1,1 1,1 0,1 0,2 0,2z"/>
  <path id="28" class="fil3" d="M7853 11866c0,1 0,1 0,1 0,0 -1,1 -1,1 -1,0 -2,0 -3,0 -1,0 -1,0 -2,0 0,0 -1,-1 -1,-1 0,0 0,0 0,-1l0 -2c-1,1 -3,2 -4,3 -2,1 -4,1 -6,1 -1,0 -3,0 -4,0 -2,-1 -3,-1 -4,-2 -1,-1 -2,-2 -2,-3 -1,-1 -1,-3 -1,-5 0,-1 0,-3 1,-4 1,-1 2,-2 3,-3 2,-1 3,-2 5,-2 2,-1 5,-1 8,-1l3 0 0 -2c0,-1 -1,-1 -1,-2 0,-1 0,-1 -1,-2 0,0 -1,-1 -1,-1 -1,0 -2,0 -3,0 -2,0 -3,0 -4,0 -1,0 -2,1 -3,1 -1,1 -2,1 -2,1 -1,1 -1,1 -2,1 0,0 0,0 0,-1 -1,0 -1,0 -1,0 0,0 0,-1 0,-1 0,-1 0,-1 0,-2 0,0 0,-1 0,-1 0,-1 0,-1 1,-1 0,-1 0,-1 1,-2 1,0 2,0 3,-1 1,0 2,0 4,0 1,-1 2,-1 4,-1 2,0 4,0 6,1 1,0 3,1 4,2 1,1 2,2 2,4 1,1 1,3 1,5l0 20zm-8 -12l-4 0c-1,0 -2,0 -3,0 -1,0 -2,0 -3,1 0,0 -1,1 -1,1 0,1 0,1 0,2 0,1 0,2 1,3 1,1 2,1 3,1 1,0 2,0 3,-1 1,0 3,-1 4,-2l0 -5z"/>
  <path id="29" class="fil3" d="M7891 11866c0,1 0,1 0,1 0,0 0,0 -1,0 0,1 -1,1 -1,1 -1,0 -1,0 -2,0 -1,0 -2,0 -2,0 -1,0 -1,0 -2,-1 0,0 0,0 0,0 0,0 -1,0 -1,-1l0 -17c0,-1 0,-2 0,-3 0,-1 0,-2 -1,-2 0,-1 -1,-2 -1,-2 -1,0 -2,0 -3,0 -1,0 -2,0 -3,1 -1,1 -2,2 -4,3l0 20c0,1 0,1 0,1 0,0 0,0 0,0 -1,1 -1,1 -2,1 0,0 -1,0 -2,0 -1,0 -1,0 -2,0 -1,0 -1,0 -1,-1 -1,0 -1,0 -1,0 0,0 0,0 0,-1l0 -30c0,0 0,0 0,0 0,-1 0,-1 1,-1 0,0 0,0 1,0 0,0 1,0 1,0 1,0 2,0 2,0 1,0 1,0 1,0 1,0 1,0 1,1 0,0 0,0 0,0l0 4c2,-2 4,-4 5,-4 2,-1 4,-2 6,-2 2,0 4,1 5,1 2,1 3,2 4,3 1,1 1,3 2,4 0,2 0,4 0,6l0 18z"/>
  <path id="30" class="fil3" d="M7929 11866c0,1 0,1 0,1 -1,0 -1,0 -1,0 0,1 -1,1 -1,1 -1,0 -1,0 -2,0 -1,0 -1,0 -2,0 0,0 0,0 -1,-1 0,0 0,0 0,0 -1,0 -1,0 -1,-1l0 -3c-1,2 -3,3 -5,4 -1,1 -3,1 -5,1 -3,0 -5,0 -6,-1 -2,-1 -3,-2 -4,-4 -1,-1 -2,-3 -2,-5 -1,-2 -1,-4 -1,-6 0,-3 0,-5 1,-8 0,-2 1,-4 2,-5 1,-2 3,-3 5,-4 1,0 3,-1 5,-1 2,0 4,1 5,1 1,1 3,2 4,3l0 -16c0,0 0,-1 0,-1 0,0 1,0 1,0 0,0 1,0 1,0 1,-1 2,-1 2,-1 1,0 2,0 3,1 0,0 1,0 1,0 0,0 0,0 1,0 0,0 0,1 0,1l0 44zm-9 -20c-1,-1 -2,-3 -3,-3 -2,-1 -3,-2 -4,-2 -1,0 -2,1 -3,1 -1,1 -1,2 -2,2 0,1 -1,2 -1,4 0,1 0,2 0,3 0,1 0,3 0,4 0,1 1,2 1,3 0,1 1,2 2,2 1,1 2,1 3,1 0,0 1,0 2,0 0,0 1,-1 1,-1 1,0 1,-1 2,-2 1,0 1,-1 2,-2l0 -10z"/>
  <path id="31" class="fil3" d="M7980 11864c0,1 0,1 0,2 0,0 0,0 0,1 0,0 0,0 -1,0 0,0 0,1 0,1l-22 0c-1,0 -2,-1 -2,-1 -1,-1 -1,-1 -1,-2l0 -39c0,-1 0,-1 1,-2 0,0 1,0 2,0l22 0c0,0 0,0 0,0 1,0 1,0 1,0 0,1 0,1 0,2 0,0 0,1 0,1 0,1 0,1 0,2 0,0 0,1 0,1 0,0 0,0 -1,0 0,1 0,1 0,1l-16 0 0 10 13 0c1,0 1,0 1,1 0,0 0,0 0,0 0,0 1,1 1,1 0,1 0,1 0,2 0,0 0,1 0,1 0,1 -1,1 -1,1 0,1 0,1 0,1 0,0 0,0 -1,0l-13 0 0 13 16 0c0,0 0,0 0,0 1,0 1,0 1,0 0,1 0,1 0,1 0,1 0,1 0,2z"/>
  <path id="32" class="fil3" d="M8016 11866c0,1 0,1 0,1 0,0 -1,0 -1,0 0,1 -1,1 -1,1 0,0 -1,0 -2,0 0,0 -1,0 -2,0 0,0 0,0 -1,-1 0,0 0,0 0,0 0,0 0,0 0,-1l0 -3c-2,2 -4,3 -5,4 -2,1 -4,1 -6,1 -3,0 -5,0 -6,-1 -2,-1 -3,-2 -4,-4 -1,-1 -2,-3 -2,-5 -1,-2 -1,-4 -1,-6 0,-3 0,-5 1,-8 0,-2 1,-4 2,-5 2,-2 3,-3 5,-4 1,0 3,-1 5,-1 2,0 4,1 5,1 2,1 3,2 4,3l0 -16c0,0 0,-1 0,-1 1,0 1,0 1,0 0,0 1,0 1,0 1,-1 2,-1 3,-1 0,0 1,0 2,1 0,0 1,0 1,0 0,0 1,0 1,0 0,0 0,1 0,1l0 44zm-9 -20c-1,-1 -2,-3 -3,-3 -1,-1 -3,-2 -4,-2 -1,0 -2,1 -3,1 -1,1 -1,2 -2,2 0,1 -1,2 -1,4 0,1 0,2 0,3 0,1 0,3 0,4 0,1 1,2 1,3 1,1 1,2 2,2 1,1 2,1 3,1 1,0 1,0 2,0 0,0 1,-1 1,-1 1,0 2,-1 2,-2 1,0 2,-1 2,-2l0 -10z"/>
  <path id="33" class="fil3" d="M8054 11866c0,1 0,1 0,1 -1,0 -1,0 -1,0 0,1 -1,1 -1,1 -1,0 -1,0 -2,0 -1,0 -1,0 -2,0 0,0 -1,0 -1,-1 0,0 0,0 -1,0 0,0 0,0 0,-1l0 -3c-1,2 -3,3 -5,4 -2,1 -3,1 -5,1 -2,0 -4,0 -6,-1 -1,0 -2,-1 -3,-2 -1,-2 -2,-3 -2,-5 0,-1 -1,-3 -1,-5l0 -19c0,0 0,0 1,0 0,-1 0,-1 0,-1 1,0 1,0 2,0 0,0 1,0 2,0 1,0 1,0 2,0 0,0 1,0 1,0 0,0 1,0 1,1 0,0 0,0 0,0l0 17c0,2 0,3 0,4 1,1 1,1 1,2 1,1 1,1 2,1 1,1 1,1 2,1 1,0 2,-1 4,-1 1,-1 2,-2 3,-4l0 -20c0,0 0,0 0,0 0,-1 1,-1 1,-1 0,0 1,0 1,0 1,0 2,0 2,0 1,0 2,0 3,0 0,0 1,0 1,0 0,0 0,0 1,1 0,0 0,0 0,0l0 30z"/>
  <path id="34" class="fil3" d="M8086 11862c0,0 0,1 0,1 0,0 0,1 -1,1 0,0 0,1 0,1 0,0 0,0 0,0 -1,1 -1,1 -2,1 0,1 -1,1 -2,1 -1,1 -2,1 -3,1 -1,0 -2,0 -3,0 -2,0 -4,0 -6,-1 -2,-1 -3,-2 -5,-3 -1,-1 -2,-3 -3,-5 0,-2 0,-5 0,-7 0,-3 0,-6 1,-8 0,-2 2,-4 3,-6 1,-1 3,-2 5,-3 2,0 4,-1 6,-1 1,0 2,0 3,0 1,1 1,1 2,1 1,0 2,1 2,1 1,0 1,1 2,1 0,0 0,0 0,1 0,0 0,0 0,0 0,0 0,1 0,1 0,1 1,1 1,2 0,1 -1,2 -1,2 0,1 0,1 -1,1 0,0 -1,0 -1,0 0,-1 -1,-1 -2,-1 0,-1 -1,-1 -2,-1 0,-1 -1,-1 -3,-1 -2,0 -4,1 -5,3 -1,1 -2,4 -2,7 0,2 1,3 1,5 0,1 1,2 1,3 1,0 2,1 2,2 1,0 2,0 3,0 2,0 3,0 4,0 0,-1 1,-1 2,-2 0,0 1,0 1,-1 1,0 1,0 2,0 0,0 0,0 0,0 0,0 0,0 0,1 0,0 1,0 1,1 0,0 0,1 0,2z"/>
  <path id="35" class="fil3" d="M8118 11866c0,1 0,1 -1,1 0,0 0,1 -1,1 0,0 -1,0 -2,0 -1,0 -2,0 -2,0 -1,0 -1,-1 -1,-1 0,0 0,0 0,-1l0 -2c-2,1 -3,2 -5,3 -1,1 -3,1 -5,1 -2,0 -3,0 -5,0 -1,-1 -2,-1 -3,-2 -1,-1 -2,-2 -3,-3 0,-1 0,-3 0,-5 0,-1 0,-3 1,-4 0,-1 1,-2 3,-3 1,-1 3,-2 5,-2 2,-1 4,-1 7,-1l3 0 0 -2c0,-1 0,-1 0,-2 0,-1 -1,-1 -1,-2 -1,0 -1,-1 -2,-1 -1,0 -2,0 -3,0 -1,0 -2,0 -3,0 -2,0 -3,1 -4,1 0,1 -1,1 -2,1 0,1 -1,1 -1,1 0,0 -1,0 -1,-1 0,0 0,0 0,0 0,0 0,-1 -1,-1 0,-1 0,-1 0,-2 0,0 0,-1 1,-1 0,-1 0,-1 0,-1 0,-1 1,-1 2,-2 1,0 2,0 3,-1 1,0 2,0 3,0 1,-1 3,-1 4,-1 3,0 5,0 6,1 2,0 3,1 5,2 1,1 1,2 2,4 0,1 1,3 1,5l0 20zm-9 -12l-3 0c-2,0 -3,0 -4,0 -1,0 -1,0 -2,1 -1,0 -1,1 -1,1 -1,1 -1,1 -1,2 0,1 1,2 1,3 1,1 2,1 4,1 1,0 2,0 3,-1 1,0 2,-1 3,-2l0 -5z"/>
  <path id="36" class="fil3" d="M8156 11835c1,0 1,0 2,1 0,0 0,1 0,1l0 29c0,1 0,1 0,1 0,0 0,0 -1,0 0,1 0,1 -1,1 -1,0 -1,0 -2,0 -1,0 -2,0 -2,0 -1,0 -1,0 -2,-1 0,0 0,0 0,0 0,0 0,0 0,-1l0 -24 -14 0 0 14c0,2 0,3 1,4 0,1 1,1 2,1 1,0 1,0 2,0 0,0 0,0 1,0 0,0 0,0 0,-1 1,0 1,0 1,0 0,0 0,0 0,0 0,1 1,1 1,1 0,0 0,0 0,1 0,0 0,1 0,1 0,1 0,2 0,3 0,0 -1,1 -1,1 0,0 0,0 -1,0 0,1 -1,1 -1,1 -1,0 -1,0 -2,0 -1,0 -1,0 -2,0 -2,0 -3,0 -4,0 -2,-1 -3,-2 -3,-2 -1,-1 -2,-2 -2,-4 -1,-1 -1,-3 -1,-5l0 -15 -4 0c0,0 0,0 -1,-1 0,0 0,-1 0,-3 0,0 0,-1 0,-1 0,-1 0,-1 0,-1 1,-1 1,-1 1,-1 0,0 0,0 0,0l4 0 0 -7c0,0 0,0 0,0 0,-1 1,-1 1,-1 0,0 1,0 1,0 1,0 2,0 3,0 0,0 1,0 2,0 0,0 1,0 1,0 0,0 1,0 1,1 0,0 0,0 0,0l0 7 20 0zm3 -9c0,2 0,3 -1,3 -1,1 -2,1 -4,1 -2,0 -3,0 -4,0 -1,-1 -1,-2 -1,-4 0,-2 0,-3 1,-4 1,0 2,-1 4,-1 2,0 3,1 4,1 1,1 1,2 1,4z"/>
  <path id="37" class="fil3" d="M8198 11851c0,3 0,5 -1,7 -1,2 -2,4 -3,5 -2,2 -3,3 -5,4 -3,1 -5,1 -8,1 -3,0 -5,0 -7,-1 -2,-1 -4,-2 -5,-3 -1,-1 -2,-3 -3,-5 -1,-2 -1,-5 -1,-7 0,-3 0,-5 1,-8 1,-2 2,-3 3,-5 2,-2 3,-3 6,-4 2,0 4,-1 7,-1 3,0 5,1 7,1 2,1 4,2 5,4 1,1 2,3 3,5 1,2 1,4 1,7zm-9 0c0,-1 0,-3 0,-4 0,-1 -1,-2 -1,-3 -1,-1 -2,-2 -3,-2 -1,-1 -2,-1 -3,-1 -2,0 -3,0 -4,1 -1,0 -2,1 -2,2 -1,1 -1,2 -2,3 0,1 0,3 0,4 0,2 0,3 0,4 1,2 1,3 2,4 0,1 1,1 2,2 1,0 2,0 3,0 2,0 3,0 4,0 1,-1 2,-1 2,-2 1,-1 1,-2 2,-3 0,-2 0,-3 0,-5z"/>
  <path id="38" class="fil3" d="M8234 11866c0,1 0,1 0,1 0,0 0,0 -1,0 0,1 0,1 -1,1 -1,0 -1,0 -2,0 -1,0 -2,0 -2,0 -1,0 -1,0 -2,-1 0,0 0,0 0,0 0,0 0,0 0,-1l0 -17c0,-1 -1,-2 -1,-3 0,-1 0,-2 -1,-2 0,-1 -1,-2 -1,-2 -1,0 -2,0 -3,0 -1,0 -2,0 -3,1 -1,1 -2,2 -3,3l0 20c0,1 0,1 -1,1 0,0 0,0 0,0 -1,1 -1,1 -2,1 0,0 -1,0 -2,0 -1,0 -1,0 -2,0 0,0 -1,0 -1,-1 -1,0 -1,0 -1,0 0,0 0,0 0,-1l0 -30c0,0 0,0 0,0 0,-1 0,-1 1,-1 0,0 0,0 1,0 0,0 1,0 2,0 0,0 1,0 1,0 1,0 1,0 2,0 0,0 0,0 0,1 0,0 0,0 0,0l0 4c2,-2 4,-4 5,-4 2,-1 4,-2 6,-2 2,0 4,1 5,1 2,1 3,2 4,3 1,1 1,3 2,4 0,2 0,4 0,6l0 18z"/>
 </g>
</svg>
